<svg width="944" height="156" viewBox="0 0 944 156" fill="none" xmlns="http://www.w3.org/2000/svg">

<g id="yahoo-shopping-logo-hrz">

<g id="color mode=white-rgb" clip-path="url(#clip0_19331_19230)">
<g id="yahoo-shopping-logo-hrz_2" clip-path="url(#clip1_19331_19230)">
<path id="Union" d="M578.431 108.33C576.701 115.36 574.29 121.42 569.86 127.1L562.74 121.9H562.75C567.27 115.84 568.72 112.56 570.83 105.35L578.431 108.33ZM617.13 41.7297H631.471V36.05H640.23V41.7297H652.261V49.0305H640.23V54.2297H649.08V61.0598H640.23V66.7404H654.471V74.05H628.681V78.3801H649.08V102.83H654.471V109.86H649.08V118.14C649.08 124.4 646.29 126.609 640.23 126.61H628.87L628 116.99H637.721C639.26 116.99 640.13 116.6 640.13 114.97V109.87H608.66V126.62H599.8V109.87H594.7V102.84H599.8V78.3898H619.82V74.0598H594.7V66.7502H608.561V61.0695H599.8V54.2404H608.561V49.0402H597.011V41.7297H608.561V36.05H617.13V41.7297ZM716.46 37.0197C715.5 41.3497 714.44 45.6805 713.19 49.8205H748.42C748.32 70.4204 748.13 96.7902 745.82 115.17C744.95 122.39 741.39 126.53 734.17 126.53H719.83L718.19 116.62H731.38C734.46 116.62 735.81 116.62 736.48 111.62C738.41 98.1403 738.98 80.4301 739.37 66.6701C734.08 90.16 721.56 111.91 702.311 126.54L695.09 118.84C705.68 111.91 713.18 104.11 719.54 93.2404C726.28 81.7905 729.65 71.5803 732.53 58.7805H725.5V58.7599C721.94 75.5999 711.25 97.3602 697.11 107.75L689.7 100.34C697.4 94.85 701.92 90.0399 706.74 81.7599C710.97 74.45 713.86 67.0299 715.88 58.7599H710.01C707.22 65.3099 703.37 73.4901 698.75 78.8801L691.05 72.34C700.1 61.56 703.56 49.7196 706.16 36.1496L716.46 37.0197ZM686.891 55.2004H695.55V64.8303H686.891V84.4601C690.26 83.5902 693.53 82.6296 696.8 81.4797L697.57 90.9103C694.2 91.9703 690.45 93.1199 686.891 94.1799V126.52H677.17V96.8801C671.78 98.32 665.91 99.6703 660.71 100.83L658.69 90.8205C664.95 89.7605 671.11 88.4099 677.17 86.9699V64.8303H670.82C669.951 70.3156 668.801 75.7905 666.685 80.9865L658.601 75.5002C663.031 63.9502 663.32 55.1899 663.8 42.9699L672.75 43.55C672.56 47.3 672.27 51.2504 671.88 55.2004H677.17V36.1398H686.891V55.2004ZM805.771 52.7902H842.25V99.5695H805.771V126.52H795.66V99.5695H759.95V52.7902H795.66V36.2404H805.771V52.7902ZM888.15 111.59C888.15 114.48 889.11 114.57 890.65 114.57H907.49C909.61 114.57 910.951 113.51 911.631 111.59C912.501 109.18 913.65 99.1696 913.94 96.1896L924.051 100.04C923.381 105.24 921.741 117.56 918.471 121.41C916.351 123.91 914.14 124.68 910.87 124.68H886.71C880.36 124.68 877.761 121.7 877.761 115.54V63.1799H888.15V111.59ZM589.41 106.01C592.49 110.73 594.99 116.02 596.63 121.41L588.74 124.49C586.62 118.14 585.18 114.48 581.71 108.61L589.41 106.01ZM869.37 68.5695C868.02 82.5295 865.71 99.0801 859.94 111.88L859.95 111.89L850.61 104.86C856.1 94.2696 858.02 79.3498 858.98 67.5099L869.37 68.5695ZM928 63.1896C934.55 76.2796 940.51 91.6801 943.021 106.21H943.011L931.94 110.16C929.63 95.5305 924.631 80.5101 918.471 67.0402L928 63.1896ZM592.391 103.42H567.271V38.7404H592.391V103.42ZM608.66 102.84H619.82V97.1603H608.66V102.84ZM628.681 102.84H640.13V97.1603H628.681V102.84ZM575.65 94.2805H584.12V84.1701H575.65V94.2805ZM608.66 90.6203H619.82V85.2297H608.66V90.6203ZM628.681 90.6203H640.13V85.2297H628.681V90.6203ZM769.96 89.5598H795.66V62.8H769.96V89.5598ZM805.771 89.5598H832.141V62.8H805.771V89.5598ZM666.69 80.9904L666.68 81.0002C666.681 80.9958 666.683 80.9909 666.685 80.9865L666.69 80.9904ZM575.65 75.5998H584.12V65.6896H575.65V75.5998ZM617.13 66.7502H631.471V61.0695H617.13V66.7502ZM876.12 36.4299C891.809 39.0297 901.239 41.6294 915.967 47.7883L911.54 58.2697C899.51 51.7298 886.32 48.3595 872.94 45.5695L876.12 36.4299ZM575.65 57.1203H584.12V47.6896H575.65V57.1203ZM617.13 54.2297H631.471V49.0305H617.13V54.2297ZM915.971 47.7902C915.969 47.7897 915.968 47.7888 915.967 47.7883L915.971 47.7805V47.7902Z" fill="white"/>
<path id="Union_2" d="M52.6904 88.5596L72.5996 38.0996H104.69L55.7695 156H23.5195L36.7305 124.77L0 38.0996H32.9502L52.6904 88.5596ZM139.189 36.0498C149.139 36.0498 157.72 40.17 162.35 46.1699V38.0996H191.7V124.09H162.35V116.03C157.72 122.37 149.139 126.32 139.189 126.32C115.51 126.32 98.1701 105.56 98.1699 81.1904C98.1699 56.8206 115.68 36.0501 139.189 36.0498ZM336.55 36.04C362.81 36.04 382.55 55.4298 382.55 81.1797C382.55 106.93 362.8 126.32 336.55 126.32C310.3 126.32 290.561 106.93 290.561 81.1797C290.561 55.4299 310.3 36.0402 336.55 36.04ZM433.68 36.04C459.94 36.04 479.68 55.4298 479.68 81.1797C479.68 106.93 459.93 126.32 433.68 126.32C407.43 126.32 387.69 106.93 387.69 81.1797C387.691 55.4299 407.43 36.0402 433.68 36.04ZM503.88 85.4697C515.21 85.4697 523.62 94.06 523.62 105.21C523.62 116.36 514.54 125.63 503.2 125.63C491.86 125.63 483.45 116.89 483.45 105.9C483.45 94.9105 492.2 85.4699 503.88 85.4697ZM232.03 46.5098C237.35 39.82 244.9 36.0401 254.68 36.04C272.88 36.04 284.2 49.0798 284.2 70.0195V124.08H253.82V77.2305C253.82 68.6505 250.21 64.0098 243.35 64.0098C236.49 64.01 232.2 69.3401 232.2 78.2598V124.08H201.83V0H232.03V46.5098ZM145.36 63.5C135.24 63.5 127.51 71.2198 127.51 81.1797C127.51 91.1397 135.24 98.8604 145.36 98.8604C155.31 98.8601 163.04 91.1395 163.04 81.1797C163.04 71.22 155.48 63.5002 145.36 63.5ZM336.55 63.8398C326.59 63.84 319.39 71.5699 319.39 81.1797C319.39 90.7896 326.6 98.5096 336.55 98.5098C346.51 98.5098 353.72 90.7897 353.72 81.1797C353.72 71.5698 346.51 63.8398 336.55 63.8398ZM433.68 63.8398C423.72 63.84 416.52 71.5699 416.52 81.1797C416.52 90.7896 423.73 98.5096 433.68 98.5098C443.64 98.5098 450.85 90.7897 450.85 81.1797C450.849 71.5698 443.64 63.8398 433.68 63.8398ZM530.48 77.9102H494.44L526.7 0H562.75L530.48 77.9102Z" fill="white"/>
</g>
</g>
</g>
<defs>
<clipPath id="clip0_19331_19230">
<rect width="943.01" height="156" fill="white"/>
</clipPath>
<clipPath id="clip1_19331_19230">
<rect width="943.01" height="156" fill="white"/>
</clipPath>
</defs>
</svg>
